<svg width="14" height="10" viewBox="0 0 14 10" fill="none" xmlns="http://www.w3.org/2000/svg">
<path fill-rule="evenodd" clip-rule="evenodd" d="M0.875 4.28568H11.2569L8.078 1.17137C7.76825 0.868512 7.819 0.417795 8.19 0.16565C8.56188 -0.0872084 9.11313 -0.0457795 9.422 0.25708L13.797 4.54282C13.8311 4.57639 13.8486 4.61568 13.874 4.65282C13.895 4.68282 13.9204 4.70854 13.9361 4.74139C13.9755 4.82354 13.9991 4.90997 13.9991 4.99711C13.9991 4.99782 14 4.99925 14 4.99997C14 5.00068 13.9991 5.00211 13.9991 5.00282C13.9991 5.08997 13.9755 5.1764 13.9361 5.25854C13.9204 5.2914 13.895 5.31711 13.874 5.34711C13.8486 5.38426 13.8311 5.42354 13.797 5.45711L9.422 9.74286C9.24875 9.91214 9.00025 10 8.75 10C8.55225 10 8.35363 9.94571 8.19 9.83428C7.819 9.58214 7.76825 9.13142 8.078 8.82856L11.2569 5.71426H0.875C0.392 5.71426 0 5.39426 0 4.99997C0 4.60568 0.392 4.28568 0.875 4.28568Z" fill="#363636"/>
</svg>
