<svg width="26" height="26" viewBox="0 0 26 26" fill="none" xmlns="http://www.w3.org/2000/svg">
<path d="M21 10H5V13.4783H21V10Z" fill="#FF9841"/>
<path d="M21.0006 10V12.7826H8.4789C7.7409 12.7826 7.03314 12.4894 6.5113 11.9676C5.98946 11.4458 5.69629 10.738 5.69629 10H21.0006Z" fill="#F48120"/>
<path d="M21 13.478H5V25.9998H21V13.478Z" fill="#FF9841"/>
<path d="M21.0006 13.478V25.3041H6.73977C6.46302 25.3041 6.19761 25.1942 6.00192 24.9985C5.80623 24.8028 5.69629 24.5374 5.69629 24.2606V13.478H21.0006Z" fill="#F48120"/>
<path d="M11.9568 20.4346H6.3916V24.6085H11.9568V20.4346Z" fill="#FFC89A"/>
<path d="M11.9565 20.4346V23.9128H8.13039C7.85364 23.9128 7.58823 23.8029 7.39254 23.6072C7.19685 23.4115 7.08691 23.1461 7.08691 22.8694V20.4346H11.9565Z" fill="#FFC89A"/>
<path d="M10.566 22.1737H7.78337C7.69112 22.1737 7.60265 22.137 7.53742 22.0718C7.47219 22.0066 7.43555 21.9181 7.43555 21.8259C7.43555 21.7336 7.47219 21.6451 7.53742 21.5799C7.60265 21.5147 7.69112 21.478 7.78337 21.478H10.566C10.6582 21.478 10.7467 21.5147 10.8119 21.5799C10.8772 21.6451 10.9138 21.7336 10.9138 21.8259C10.9138 21.9181 10.8772 22.0066 10.8119 22.0718C10.7467 22.137 10.6582 22.1737 10.566 22.1737Z" fill="#F48120"/>
<path d="M10.566 23.5653H7.78337C7.69112 23.5653 7.60265 23.5286 7.53742 23.4634C7.47219 23.3982 7.43555 23.3097 7.43555 23.2175C7.43555 23.1252 7.47219 23.0367 7.53742 22.9715C7.60265 22.9063 7.69112 22.8696 7.78337 22.8696H10.566C10.6582 22.8696 10.7467 22.9063 10.8119 22.9715C10.8772 23.0367 10.9138 23.1252 10.9138 23.2175C10.9138 23.3097 10.8772 23.3982 10.8119 23.4634C10.7467 23.5286 10.6582 23.5653 10.566 23.5653Z" fill="#F48120"/>
<path d="M16.4785 24.6087V20.4347C16.4785 20.3425 16.5152 20.254 16.5804 20.1888C16.6456 20.1236 16.7341 20.0869 16.8263 20.0869C16.9186 20.0869 17.0071 20.1236 17.0723 20.1888C17.1375 20.254 17.1742 20.3425 17.1742 20.4347V24.6087C17.1742 24.7009 17.1375 24.7894 17.0723 24.8546C17.0071 24.9198 16.9186 24.9565 16.8263 24.9565C16.7341 24.9565 16.6456 24.9198 16.5804 24.8546C16.5152 24.7894 16.4785 24.7009 16.4785 24.6087Z" fill="#FFC89A"/>
<g filter="url(#filter0_d_970_55331)">
<path d="M15.087 10V15.913L14.0435 15.2174L13.0035 15.913L11.9566 15.2174L10.9131 15.913V10H15.087Z" fill="#FF9841"/>
</g>
<path d="M18.2175 22.5218C17.9915 22.5218 18.0401 22.5218 16.8262 20.9913L15.7062 22.3826C15.6464 22.446 15.565 22.4846 15.4781 22.4908C15.3912 22.497 15.3051 22.4704 15.2369 22.4162C15.1686 22.3619 15.1233 22.2841 15.1097 22.198C15.0961 22.1119 15.1154 22.0239 15.1636 21.9513L16.5549 20.2122C16.5875 20.1716 16.6288 20.1388 16.6758 20.1163C16.7227 20.0937 16.7742 20.082 16.8262 20.082C16.8783 20.082 16.9297 20.0937 16.9767 20.1163C17.0236 20.1388 17.0649 20.1716 17.0975 20.2122L18.4888 21.9513C18.5314 22.0024 18.5584 22.0646 18.5667 22.1305C18.575 22.1964 18.5643 22.2633 18.5357 22.3234C18.5072 22.3834 18.462 22.4339 18.4057 22.4691C18.3493 22.5043 18.284 22.5225 18.2175 22.5218Z" fill="#FFC89A"/>
<path d="M15.0867 10C15.0867 15.4783 15.0519 15.2174 15.0867 15.2174C14.1642 15.2174 13.2795 14.8509 12.6272 14.1986C11.9749 13.5463 11.6084 12.6616 11.6084 11.7391V10H15.0867Z" fill="#FFC89A"/>
<defs>
<filter id="filter0_d_970_55331" x="0.913086" y="0" width="24.1738" height="25.9131" filterUnits="userSpaceOnUse" color-interpolation-filters="sRGB">
<feFlood flood-opacity="0" result="BackgroundImageFix"/>
<feColorMatrix in="SourceAlpha" type="matrix" values="0 0 0 0 0 0 0 0 0 0 0 0 0 0 0 0 0 0 127 0" result="hardAlpha"/>
<feOffset/>
<feGaussianBlur stdDeviation="5"/>
<feComposite in2="hardAlpha" operator="out"/>
<feColorMatrix type="matrix" values="0 0 0 0 0 0 0 0 0 0 0 0 0 0 0 0 0 0 0.1 0"/>
<feBlend mode="normal" in2="BackgroundImageFix" result="effect1_dropShadow_970_55331"/>
<feBlend mode="normal" in="SourceGraphic" in2="effect1_dropShadow_970_55331" result="shape"/>
</filter>
</defs>
</svg>
