<svg width="20" height="29" viewBox="0 0 20 29" fill="none" xmlns="http://www.w3.org/2000/svg">
<path d="M17.0234 0H2.9766C2.18743 0.00089988 1.43085 0.314794 0.87282 0.87282C0.314794 1.43085 0.00089988 2.18743 0 2.9766V25.0234C0.00089988 25.8126 0.314794 26.5692 0.87282 27.1272C1.43085 27.6852 2.18743 27.9991 2.9766 28H3.998L4.935 28.002C14.3073 28 19.9983 21.75 20 19.0012V2.9766C19.9991 2.18743 19.6852 1.43085 19.1272 0.87282C18.5692 0.314794 17.8126 0.00089988 17.0234 0ZM5 4H9C9.26522 4 9.51957 4.10536 9.70711 4.29289C9.89464 4.48043 10 4.73478 10 5C10 5.26522 9.89464 5.51957 9.70711 5.70711C9.51957 5.89464 9.26522 6 9 6H5C4.73478 6 4.48043 5.89464 4.29289 5.70711C4.10536 5.51957 4 5.26522 4 5C4 4.73478 4.10536 4.48043 4.29289 4.29289C4.48043 4.10536 4.73478 4 5 4ZM5 8H15C15.2652 8 15.5196 8.10536 15.7071 8.29289C15.8946 8.48043 16 8.73478 16 9C16 9.26522 15.8946 9.51957 15.7071 9.70711C15.5196 9.89464 15.2652 10 15 10H5C4.73478 10 4.48043 9.89464 4.29289 9.70711C4.10536 9.51957 4 9.26522 4 9C4 8.73478 4.10536 8.48043 4.29289 8.29289C4.48043 8.10536 4.73478 8 5 8ZM10.6021 25.11C11.9101 23.7016 12.7311 21.9103 12.9443 20H17.62C15.9301 22.4521 13.4546 24.2546 10.6021 25.11Z" fill="#F48120"/>
</svg>
