<svg width="24" height="24" viewBox="0 0 24 24" fill="none" xmlns="http://www.w3.org/2000/svg">
<path d="M3.19995 18.889C3.19995 19.9401 4.05995 20.8001 5.11106 20.8001H18.4888C19.54 20.8001 20.4 19.9401 20.4 18.889V12.2001H3.19995V18.889Z" fill="#B5B5B5"/>
<path d="M7.97773 8.37788C8.55106 8.37788 8.93328 7.99565 8.93328 7.42232V4.55565C8.93328 3.98232 8.55106 3.6001 7.97773 3.6001C7.4044 3.6001 7.02217 3.98232 7.02217 4.55565V7.42232C7.02217 7.99565 7.4044 8.37788 7.97773 8.37788Z" fill="#B5B5B5"/>
<path d="M15.6222 8.37788C16.1955 8.37788 16.5777 7.99565 16.5777 7.42232V4.55565C16.5777 3.98232 16.1955 3.6001 15.6222 3.6001C15.0488 3.6001 14.6666 3.98232 14.6666 4.55565V7.42232C14.6666 7.99565 15.0488 8.37788 15.6222 8.37788Z" fill="#B5B5B5"/>
<path d="M18.4888 6.46676H17.5333V7.42232C17.5333 8.47343 16.6733 9.33343 15.6222 9.33343C14.5711 9.33343 13.7111 8.47343 13.7111 7.42232V6.46676H9.88884V7.42232C9.88884 8.47343 9.02884 9.33343 7.97773 9.33343C6.92662 9.33343 6.06662 8.47343 6.06662 7.42232V6.46676H5.11106C4.05995 6.46676 3.19995 7.32676 3.19995 8.37788V10.289H20.4V8.37788C20.4 7.32676 19.54 6.46676 18.4888 6.46676Z" fill="#B5B5B5"/>
</svg>
