<svg width="23" height="23" viewBox="0 0 23 23" fill="none" xmlns="http://www.w3.org/2000/svg">
<path d="M22.25 19.8611C22.25 21.175 21.175 22.25 19.8611 22.25H3.13889C1.825 22.25 0.75 21.175 0.75 19.8611V11.5H22.25V19.8611Z" fill="#F48120"/>
<path d="M16.2778 6.72222C15.5611 6.72222 15.0833 6.24444 15.0833 5.52778V1.94444C15.0833 1.22778 15.5611 0.75 16.2778 0.75C16.9944 0.75 17.4722 1.22778 17.4722 1.94444V5.52778C17.4722 6.24444 16.9944 6.72222 16.2778 6.72222Z" fill="#F48120"/>
<path d="M6.72222 6.72222C6.00556 6.72222 5.52778 6.24444 5.52778 5.52778V1.94444C5.52778 1.22778 6.00556 0.75 6.72222 0.75C7.43889 0.75 7.91667 1.22778 7.91667 1.94444V5.52778C7.91667 6.24444 7.43889 6.72222 6.72222 6.72222Z" fill="#F48120"/>
<path d="M3.13889 4.33333H4.33333V5.52778C4.33333 6.84167 5.40833 7.91667 6.72222 7.91667C8.03611 7.91667 9.11111 6.84167 9.11111 5.52778V4.33333H13.8889V5.52778C13.8889 6.84167 14.9639 7.91667 16.2778 7.91667C17.5917 7.91667 18.6667 6.84167 18.6667 5.52778V4.33333H19.8611C21.175 4.33333 22.25 5.40833 22.25 6.72222V9.11111H0.75V6.72222C0.75 5.40833 1.825 4.33333 3.13889 4.33333Z" fill="#F48120"/>
</svg>
