<svg width="24" height="24" viewBox="0 0 24 24" fill="none" xmlns="http://www.w3.org/2000/svg">
<path d="M10.3348 17.5098C10.3348 17.7072 10.1118 18.0363 9.72958 18.3654C9.60217 18.2666 9.57032 18.1021 9.63403 17.9705C9.82514 17.6414 10.1755 17.4768 10.3029 17.4768C10.3029 17.4768 10.3029 17.4768 10.3348 17.4768C10.3029 17.4439 10.3348 17.4439 10.3348 17.5098ZM5.7481 21.0309V18.5957H3.39106L5.7481 21.0309ZM15.9407 3.45797V20.5702C15.9407 20.9322 15.654 21.2284 15.3037 21.2284H6.38514V18.5957C6.38514 18.2337 6.09847 17.9376 5.7481 17.9376H3.19995V3.45797C3.19995 3.09598 3.48662 2.7998 3.83699 2.7998H15.3037C15.654 2.7998 15.9407 3.09598 15.9407 3.45797ZM4.47403 5.76154C4.47403 5.95899 4.60143 6.09062 4.79254 6.09062H8.61477C8.80588 6.09062 8.93328 5.95899 8.93328 5.76154C8.93328 5.56409 8.80588 5.43246 8.61477 5.43246H4.79254C4.60143 5.43246 4.47403 5.56409 4.47403 5.76154ZM14.0296 19.583C14.0296 19.3855 13.9022 19.2539 13.7111 19.2539H13.3288L13.074 18.9906C12.8829 18.7932 12.5962 18.7603 12.3414 18.859L12.1822 18.9248L12.0548 18.7932C11.8318 18.5628 11.5133 18.5299 11.2585 18.6944L10.6533 19.0893L10.2074 18.7274C10.6214 18.2996 10.9718 17.8388 10.94 17.411C10.9081 17.0819 10.717 16.8516 10.4622 16.7858C9.9844 16.6541 9.34736 17.0819 9.09254 17.5427C8.86958 17.9047 8.93328 18.3983 9.2518 18.7274C8.99699 18.9248 8.74217 19.0893 8.48736 19.2539C8.3281 19.3526 8.29625 19.5501 8.35995 19.7146C8.42366 19.8133 8.51921 19.8791 8.64662 19.8791C8.71032 19.8791 8.74217 19.8791 8.80588 19.8462C8.99699 19.7146 9.37921 19.4842 9.76143 19.1881L10.2711 19.6488C10.494 19.8462 10.7807 19.8462 11.0037 19.6817L11.6088 19.2868L11.7362 19.4184C11.9274 19.6159 12.214 19.6817 12.4688 19.5501L12.6281 19.4842L12.8829 19.7475C13.0103 19.8791 13.1696 19.945 13.3288 19.945H13.7111C13.9022 19.912 14.0296 19.7804 14.0296 19.583ZM14.6666 12.3432C14.6666 12.1457 14.5392 12.0141 14.3481 12.0141H4.79254C4.60143 12.0141 4.47403 12.1457 4.47403 12.3432C4.47403 12.5406 4.60143 12.6723 4.79254 12.6723H14.3481C14.5392 12.6723 14.6666 12.5406 14.6666 12.3432ZM14.6666 11.0268C14.6666 10.8294 14.5392 10.6978 14.3481 10.6978H4.79254C4.60143 10.6978 4.47403 10.8294 4.47403 11.0268C4.47403 11.2243 4.60143 11.3559 4.79254 11.3559H14.3481C14.5392 11.3559 14.6666 11.2243 14.6666 11.0268ZM14.6666 9.71052C14.6666 9.51307 14.5392 9.38144 14.3481 9.38144H4.79254C4.60143 9.38144 4.47403 9.51307 4.47403 9.71052C4.47403 9.90797 4.60143 10.0396 4.79254 10.0396H14.3481C14.5392 10.0396 14.6666 9.90797 14.6666 9.71052ZM14.6666 8.39419C14.6666 8.19674 14.5392 8.06511 14.3481 8.06511H4.79254C4.60143 8.06511 4.47403 8.19674 4.47403 8.39419C4.47403 8.59164 4.60143 8.72327 4.79254 8.72327H14.3481C14.5392 8.72327 14.6666 8.59164 14.6666 8.39419ZM18.1703 20.9651C18.2022 21.0967 18.3296 21.2284 18.4888 21.2284C18.6481 21.2284 18.7755 21.1297 18.8074 20.9651L19.3807 18.5957H17.597L18.1703 20.9651ZM17.5333 17.9376H19.4444V4.77429H17.5333V17.9376ZM18.4888 2.7998C17.9474 2.7998 17.5333 3.22761 17.5333 3.78705V4.11613H19.4444V3.78705C19.4444 3.22761 19.0303 2.7998 18.4888 2.7998ZM19.4444 4.11613V4.77429C19.6355 4.77429 19.7629 4.90593 19.7629 5.10338V8.39419C19.7629 8.59164 19.8903 8.72327 20.0814 8.72327C20.2725 8.72327 20.4 8.59164 20.4 8.39419V5.10338C20.4 4.54394 19.9859 4.11613 19.4444 4.11613Z" fill="#F48120"/>
</svg>
