<svg width="24" height="24" viewBox="0 0 24 24" fill="none" xmlns="http://www.w3.org/2000/svg">
<path d="M10.335 17.5098C10.335 17.7072 10.112 18.0363 9.72983 18.3654C9.60242 18.2666 9.57057 18.1021 9.63427 17.9705C9.82538 17.6414 10.1758 17.4768 10.3032 17.4768C10.3032 17.4768 10.3032 17.4768 10.335 17.4768C10.3032 17.4439 10.335 17.4439 10.335 17.5098ZM5.74834 21.0309V18.5957H3.39131L5.74834 21.0309ZM15.9409 3.45797V20.5702C15.9409 20.9322 15.6543 21.2284 15.3039 21.2284H6.38538V18.5957C6.38538 18.2337 6.09871 17.9376 5.74834 17.9376H3.2002V3.45797C3.2002 3.09598 3.48686 2.7998 3.83723 2.7998H15.3039C15.6543 2.7998 15.9409 3.09598 15.9409 3.45797ZM4.47427 5.76154C4.47427 5.95899 4.60168 6.09062 4.79279 6.09062H8.61501C8.80612 6.09062 8.93353 5.95899 8.93353 5.76154C8.93353 5.56409 8.80612 5.43246 8.61501 5.43246H4.79279C4.60168 5.43246 4.47427 5.56409 4.47427 5.76154ZM14.0298 19.583C14.0298 19.3855 13.9024 19.2539 13.7113 19.2539H13.3291L13.0743 18.9906C12.8832 18.7932 12.5965 18.7603 12.3417 18.859L12.1824 18.9248L12.055 18.7932C11.832 18.5628 11.5135 18.5299 11.2587 18.6944L10.6535 19.0893L10.2076 18.7274C10.6217 18.2996 10.972 17.8388 10.9402 17.411C10.9083 17.0819 10.7172 16.8516 10.4624 16.7858C9.98464 16.6541 9.3476 17.0819 9.09279 17.5427C8.86982 17.9047 8.93353 18.3983 9.25205 18.7274C8.99723 18.9248 8.74242 19.0893 8.4876 19.2539C8.32834 19.3526 8.29649 19.5501 8.3602 19.7146C8.4239 19.8133 8.51945 19.8791 8.64686 19.8791C8.71057 19.8791 8.74242 19.8791 8.80612 19.8462C8.99723 19.7146 9.37945 19.4842 9.76168 19.1881L10.2713 19.6488C10.4943 19.8462 10.7809 19.8462 11.0039 19.6817L11.6091 19.2868L11.7365 19.4184C11.9276 19.6159 12.2143 19.6817 12.4691 19.5501L12.6283 19.4842L12.8832 19.7475C13.0106 19.8791 13.1698 19.945 13.3291 19.945H13.7113C13.9024 19.912 14.0298 19.7804 14.0298 19.583ZM14.6669 12.3432C14.6669 12.1457 14.5395 12.0141 14.3483 12.0141H4.79279C4.60168 12.0141 4.47427 12.1457 4.47427 12.3432C4.47427 12.5406 4.60168 12.6723 4.79279 12.6723H14.3483C14.5395 12.6723 14.6669 12.5406 14.6669 12.3432ZM14.6669 11.0268C14.6669 10.8294 14.5395 10.6978 14.3483 10.6978H4.79279C4.60168 10.6978 4.47427 10.8294 4.47427 11.0268C4.47427 11.2243 4.60168 11.3559 4.79279 11.3559H14.3483C14.5395 11.3559 14.6669 11.2243 14.6669 11.0268ZM14.6669 9.71052C14.6669 9.51307 14.5395 9.38144 14.3483 9.38144H4.79279C4.60168 9.38144 4.47427 9.51307 4.47427 9.71052C4.47427 9.90797 4.60168 10.0396 4.79279 10.0396H14.3483C14.5395 10.0396 14.6669 9.90797 14.6669 9.71052ZM14.6669 8.39419C14.6669 8.19674 14.5395 8.06511 14.3483 8.06511H4.79279C4.60168 8.06511 4.47427 8.19674 4.47427 8.39419C4.47427 8.59164 4.60168 8.72327 4.79279 8.72327H14.3483C14.5395 8.72327 14.6669 8.59164 14.6669 8.39419ZM18.1706 20.9651C18.2024 21.0967 18.3298 21.2284 18.4891 21.2284C18.6483 21.2284 18.7758 21.1297 18.8076 20.9651L19.3809 18.5957H17.5972L18.1706 20.9651ZM17.5335 17.9376H19.4446V4.77429H17.5335V17.9376ZM18.4891 2.7998C17.9476 2.7998 17.5335 3.22761 17.5335 3.78705V4.11613H19.4446V3.78705C19.4446 3.22761 19.0306 2.7998 18.4891 2.7998ZM19.4446 4.11613V4.77429C19.6358 4.77429 19.7632 4.90593 19.7632 5.10338V8.39419C19.7632 8.59164 19.8906 8.72327 20.0817 8.72327C20.2728 8.72327 20.4002 8.59164 20.4002 8.39419V5.10338C20.4002 4.54394 19.9861 4.11613 19.4446 4.11613Z" fill="#B5B5B5"/>
</svg>
