<svg width="24" height="24" viewBox="0 0 24 24" fill="none" xmlns="http://www.w3.org/2000/svg">
<path d="M17.7147 11.3508C17.1108 11.6631 16.8818 12.4336 17.1941 13.0374C17.6522 13.912 17.9021 14.8907 17.9021 15.8902C17.9021 16.5774 18.4643 17.1396 19.1515 17.1396C19.8387 17.1396 20.4009 16.5774 20.4009 15.8902C20.4009 14.4951 20.0469 13.0999 19.4014 11.8714C19.089 11.2675 18.3394 11.0176 17.7147 11.3508Z" fill="#B5B5B5"/>
<path d="M12.8006 9.87258C13.4877 9.9767 14.1333 9.51859 14.2374 8.83143C14.3415 8.14427 13.8834 7.49876 13.1962 7.39464C12.7381 7.31135 12.2592 7.29053 11.8011 7.29053C7.05343 7.29053 3.20117 11.1428 3.20117 15.8904C3.20117 16.5776 3.76339 17.1398 4.45055 17.1398C5.13771 17.1398 5.69993 16.5776 5.69993 15.8904C5.69993 12.5171 8.44857 9.78929 11.8011 9.78929C12.1342 9.78929 12.4674 9.81011 12.8006 9.87258Z" fill="#B5B5B5"/>
<path d="M18.2978 6.87383C18.1729 6.76971 17.9646 6.76971 17.8605 6.91547L10.7807 15.1614C10.7391 15.2239 10.6974 15.2655 10.6558 15.328C10.3018 15.9318 10.4892 16.7023 11.093 17.0563C11.6969 17.4103 12.4674 17.2229 12.8214 16.619L18.3811 7.26946C18.4436 7.14453 18.4228 6.97794 18.2978 6.87383Z" fill="#B5B5B5"/>
</svg>
