<svg width="24" height="24" viewBox="0 0 24 24" fill="none" xmlns="http://www.w3.org/2000/svg">
<path d="M17.7137 11.3508C17.1099 11.6631 16.8808 12.4336 17.1932 13.0374C17.6513 13.912 17.9011 14.8907 17.9011 15.8902C17.9011 16.5774 18.4634 17.1396 19.1505 17.1396C19.8377 17.1396 20.3999 16.5774 20.3999 15.8902C20.3999 14.4951 20.0459 13.0999 19.4004 11.8714C19.088 11.2675 18.3384 11.0176 17.7137 11.3508Z" fill="#F48120"/>
<path d="M12.7996 9.87258C13.4868 9.9767 14.1323 9.51859 14.2364 8.83143C14.3405 8.14427 13.8824 7.49876 13.1952 7.39464C12.7371 7.31135 12.2582 7.29053 11.8001 7.29053C7.05245 7.29053 3.2002 11.1428 3.2002 15.8904C3.2002 16.5776 3.76242 17.1398 4.44958 17.1398C5.13674 17.1398 5.69896 16.5776 5.69896 15.8904C5.69896 12.5171 8.4476 9.78929 11.8001 9.78929C12.1333 9.78929 12.4664 9.81011 12.7996 9.87258Z" fill="#F48120"/>
<path d="M18.2968 6.87383C18.1719 6.76971 17.9637 6.76971 17.8596 6.91547L10.7797 15.1614C10.7381 15.2239 10.6964 15.2655 10.6548 15.328C10.3008 15.9318 10.4882 16.7023 11.0921 17.0563C11.6959 17.4103 12.4664 17.2229 12.8204 16.619L18.3801 7.26946C18.4426 7.14453 18.4218 6.97794 18.2968 6.87383Z" fill="#F48120"/>
</svg>
