<svg width="16" height="18" viewBox="0 0 16 18" fill="none" xmlns="http://www.w3.org/2000/svg">
<path d="M15.9999 4.49995C15.9999 4.05239 15.8053 3.62321 15.4591 3.30676C15.1129 2.99031 14.6433 2.81249 14.1537 2.81249H11.0765C11.0765 1.80768 10.4901 0.879205 9.538 0.376802C8.58596 -0.125601 7.41306 -0.125601 6.46098 0.376802C5.50893 0.879205 4.92246 1.80768 4.92246 2.81249H1.84533C1.26065 2.81142 0.710086 3.06422 0.362001 3.49364C0.0139146 3.92306 -0.0904438 4.47802 0.0807483 4.98896C0.251952 5.50004 0.678428 5.90637 1.23 6.08393V15.3359C1.23073 16.0422 1.53811 16.7192 2.08426 17.2186C2.63056 17.7181 3.37127 17.9991 4.14397 18H11.8552C12.6279 17.9991 13.3686 17.7181 13.9149 17.2186C14.4611 16.7192 14.7685 16.0422 14.7692 15.3359V6.08393C15.1279 5.968 15.4387 5.75362 15.6591 5.46999C15.8793 5.1865 15.9984 4.84764 16 4.49988L15.9999 4.49995ZM7.99942 1.12496C8.48907 1.12496 8.95863 1.30279 9.30485 1.61923C9.6512 1.9358 9.84562 2.36497 9.84562 2.81252H6.15328C6.15328 2.36497 6.34769 1.93578 6.69406 1.61923C7.04026 1.3028 7.50979 1.12496 7.99949 1.12496H7.99942ZM13.5379 15.3357C13.5375 15.7437 13.36 16.1348 13.0445 16.4234C12.7289 16.7118 12.3011 16.8742 11.8548 16.8748H4.14353C3.69721 16.8742 3.26939 16.7118 2.95385 16.4234C2.6383 16.1348 2.46083 15.7437 2.46038 15.3357V6.18724H13.5378L13.5379 15.3357ZM14.1534 5.06229H1.84525C1.62545 5.06229 1.42229 4.95503 1.31236 4.78094C1.20246 4.60697 1.20246 4.3926 1.31236 4.21849C1.42227 4.04439 1.62543 3.93728 1.84525 3.93728H14.1534C14.3732 3.93728 14.5764 4.0444 14.6863 4.21849C14.7962 4.39259 14.7962 4.60697 14.6863 4.78094C14.5764 4.95503 14.3732 5.06229 14.1534 5.06229Z" fill="#404449"/>
</svg>
