<svg width="23" height="25" viewBox="0 0 23 25" fill="none" xmlns="http://www.w3.org/2000/svg">
<path d="M5.63279 1.19284e-06C4.38595 1.19284e-06 3.36106 1.02481 3.36106 2.27173V11.1794H0.590627C0.434597 11.1788 0.28472 11.2402 0.173959 11.3501C0.0631977 11.46 0.000624 11.6094 0 11.7654V18.5186C0 19.7261 0.963674 20.717 2.15683 20.7788C2.19466 20.7864 2.23314 20.7903 2.27173 20.7904H6.72327V23.5355C6.72445 23.8606 6.98887 24.1228 7.3139 24.1216H21.2936C22.2301 24.1216 23 23.3517 23 22.4152V1.71213C23 0.775627 22.2301 0 21.2936 0L5.63279 1.19284e-06ZM5.63279 1.17781C6.24797 1.17781 6.72327 1.65618 6.72327 2.27173V19.6137H4.24356C4.42586 19.2869 4.53887 18.9168 4.53887 18.5186V11.7965V11.7654V2.27174C4.53887 1.65618 5.01761 1.17781 5.63279 1.17781ZM10.0407 4.41247H19.778C19.8557 4.41217 19.9328 4.42727 20.0046 4.45692C20.0765 4.48656 20.1418 4.53016 20.1967 4.58519C20.2516 4.64022 20.2951 4.70558 20.3246 4.77751C20.3541 4.84944 20.3691 4.9265 20.3686 5.00425C20.3683 5.08151 20.3528 5.15795 20.3229 5.22922C20.2931 5.30048 20.2495 5.36517 20.1947 5.41959C20.1398 5.47401 20.0748 5.51709 20.0033 5.54638C19.9318 5.57566 19.8552 5.59058 19.778 5.59028H10.0407C9.88543 5.58967 9.73672 5.52774 9.62695 5.41797C9.51718 5.30819 9.45524 5.15949 9.45464 5.00425C9.45418 4.92689 9.46899 4.8502 9.49821 4.77858C9.52743 4.70695 9.57049 4.64179 9.62492 4.58682C9.67935 4.53185 9.74409 4.48816 9.81543 4.45824C9.88677 4.42833 9.96331 4.41277 10.0407 4.41247ZM10.0407 7.9436H19.778C19.8552 7.94329 19.9318 7.95821 20.0033 7.9875C20.0748 8.01679 20.1398 8.05987 20.1947 8.11429C20.2495 8.16871 20.2931 8.23339 20.3229 8.30466C20.3528 8.37592 20.3683 8.45237 20.3686 8.52963C20.3691 8.60737 20.3541 8.68443 20.3246 8.75636C20.2951 8.82829 20.2516 8.89366 20.1967 8.94869C20.1418 9.00371 20.0765 9.04731 20.0046 9.07696C19.9328 9.1066 19.8557 9.12171 19.778 9.1214H10.0407C9.96331 9.1211 9.88677 9.10555 9.81543 9.07563C9.74409 9.04572 9.67935 9.00202 9.62492 8.94706C9.57049 8.89209 9.52743 8.82693 9.49821 8.7553C9.46899 8.68367 9.45418 8.60699 9.45464 8.52963C9.45524 8.37439 9.51718 8.22568 9.62695 8.11591C9.73672 8.00614 9.88543 7.9442 10.0407 7.9436ZM10.0407 11.4747H19.778C19.8552 11.4744 19.9318 11.4893 20.0033 11.5186C20.0748 11.5479 20.1398 11.591 20.1947 11.6454C20.2495 11.6998 20.2931 11.7645 20.3229 11.8358C20.3528 11.907 20.3683 11.9835 20.3686 12.0608C20.3689 12.1384 20.3538 12.2153 20.3243 12.2871C20.2947 12.3589 20.2512 12.4242 20.1963 12.4791C20.1414 12.534 20.0762 12.5775 20.0044 12.607C19.9326 12.6366 19.8556 12.6517 19.778 12.6514H10.0407C9.96341 12.6511 9.88696 12.6356 9.8157 12.6057C9.74443 12.5759 9.67975 12.5323 9.62533 12.4774C9.57091 12.4226 9.52783 12.3576 9.49854 12.2861C9.46925 12.2146 9.45433 12.138 9.45464 12.0608C9.45524 11.9055 9.51718 11.7568 9.62695 11.647C9.73672 11.5373 9.88543 11.4753 10.0407 11.4747ZM10.0407 15.0058H19.778C19.8552 15.0055 19.9318 15.0205 20.0033 15.0497C20.0748 15.079 20.1398 15.1221 20.1947 15.1765C20.2495 15.231 20.2931 15.2956 20.3229 15.3669C20.3528 15.4382 20.3683 15.5146 20.3686 15.5919C20.3683 15.6691 20.3528 15.7456 20.3229 15.8168C20.2931 15.8881 20.2495 15.9528 20.1947 16.0072C20.1398 16.0616 20.0748 16.1047 20.0033 16.134C19.9318 16.1633 19.8552 16.1782 19.778 16.1779H10.0407C9.88543 16.1773 9.73672 16.1154 9.62695 16.0056C9.51718 15.8958 9.45524 15.7471 9.45464 15.5919C9.45524 15.4366 9.51718 15.2879 9.62695 15.1782C9.73672 15.0684 9.88543 15.0065 10.0407 15.0058ZM10.0407 18.5324H19.778C19.8556 18.5321 19.9326 18.5471 20.0044 18.5767C20.0762 18.6063 20.1414 18.6498 20.1963 18.7047C20.2512 18.7596 20.2947 18.8248 20.3243 18.8966C20.3538 18.9684 20.3689 19.0454 20.3686 19.123C20.3683 19.2003 20.3528 19.2767 20.3229 19.348C20.2931 19.4192 20.2495 19.4839 20.1947 19.5383C20.1398 19.5928 20.0748 19.6358 20.0033 19.6651C19.9318 19.6944 19.8552 19.7093 19.778 19.709H10.0407C9.88543 19.7084 9.73672 19.6465 9.62695 19.5367C9.51718 19.4269 9.45524 19.2782 9.45464 19.123C9.45433 19.0457 9.46925 18.9692 9.49854 18.8977C9.52783 18.8262 9.57091 18.7612 9.62533 18.7063C9.67975 18.6515 9.74443 18.6079 9.8157 18.578C9.88696 18.5482 9.96341 18.5327 10.0407 18.5324Z" fill="#F48120"/>
</svg>
