<svg width="81" height="81" viewBox="0 0 81 81" fill="none" xmlns="http://www.w3.org/2000/svg">
<path d="M80.2484 40.1242C80.2484 62.2842 62.2842 80.2484 40.1242 80.2484C17.9642 80.2484 0 62.2842 0 40.1242C0 17.9642 17.9642 0 40.1242 0C62.2842 0 80.2484 17.9642 80.2484 40.1242Z" fill="#FF5050" fill-opacity="0.2"/>
<path fill-rule="evenodd" clip-rule="evenodd" d="M41.3413 0.317383C19.6275 0.317383 2 17.9449 2 39.6587C2 61.3725 19.6275 79 41.3413 79C63.0551 79 80.6826 61.3725 80.6826 39.6587C80.6826 17.9449 63.0551 0.317383 41.3413 0.317383ZM41.3413 5.56289C60.1596 5.56289 75.4371 20.8404 75.4371 39.6587C75.4371 58.477 60.1596 73.7545 41.3413 73.7545C22.5231 73.7545 7.24551 58.477 7.24551 39.6587C7.24551 20.8404 22.5231 5.56289 41.3413 5.56289Z" fill="#FF5050"/>
<path fill-rule="evenodd" clip-rule="evenodd" d="M41.3412 35.9502L30.0818 24.6907C29.0589 23.6678 27.3961 23.6678 26.3732 24.6907C25.3503 25.7136 25.3503 27.3764 26.3732 28.3993L37.6327 39.6588L26.3732 50.9183C25.3503 51.9411 25.3503 53.604 26.3732 54.6268C27.3961 55.6497 29.0589 55.6497 30.0818 54.6268L41.3412 43.3673L52.6007 54.6268C53.6236 55.6497 55.2864 55.6497 56.3093 54.6268C57.3322 53.604 57.3322 51.9411 56.3093 50.9183L45.0498 39.6588L56.3093 28.3993C57.3322 27.3764 57.3322 25.7136 56.3093 24.6907C55.2864 23.6678 53.6236 23.6678 52.6007 24.6907L41.3412 35.9502Z" fill="#FF5050"/>
</svg>
