<svg width="24" height="24" viewBox="0 0 24 24" fill="none" xmlns="http://www.w3.org/2000/svg">
<path d="M12.1788 7.96893C11.6354 7.96893 11.1137 7.88199 10.592 7.70809C10.3094 7.62115 10.179 7.31683 10.266 7.05599C10.3529 6.77342 10.6572 6.643 10.9181 6.72994C11.3311 6.8821 11.7875 6.94731 12.2223 6.92557C12.6135 6.92557 13.0048 6.86036 13.3743 6.72994C13.6569 6.643 13.9395 6.79515 14.0264 7.05599C14.1134 7.33857 13.9612 7.62115 13.7004 7.70809C13.2222 7.86025 12.7222 7.9472 12.2223 7.9472C12.2223 7.96893 12.2005 7.96893 12.1788 7.96893ZM13.9177 4.3389C13.6786 4.42585 13.4395 4.46932 13.2004 4.49106C13.1569 4.49106 13.1135 4.49106 13.07 4.49106C13.0483 4.49106 13.0483 4.49106 13.0483 4.49106C12.7222 4.46932 12.3962 4.38238 12.1136 4.12154C11.7006 3.75201 11.2441 3.62159 10.8528 3.59985H10.8311H10.8094C10.4181 3.59985 10.0051 3.81722 9.67907 3.99112C9.41823 4.14327 9.35302 4.5128 9.52691 4.7519L10.7224 6.36042C10.8311 6.36042 10.9398 6.36042 11.0485 6.40389C11.4397 6.53431 11.831 6.59952 12.244 6.59952C12.6135 6.59952 12.9613 6.53431 13.3091 6.42563C13.4613 6.38215 13.6351 6.36042 13.809 6.40389C13.8525 6.36042 13.896 6.29521 13.9177 6.20826C14.0047 5.88221 14.2438 5.42574 14.4829 4.96927C14.6568 4.62148 14.309 4.20848 13.9177 4.3389ZM17.613 20.0328C17.613 20.0328 13.9612 20.8805 12.1788 20.7936C10.4181 20.8805 6.74461 20.0328 6.74461 20.0328C4.46226 20.1198 6.28814 18.7721 6.28814 18.7721C6.28814 18.7721 5.28825 16.4028 5.74472 13.9683C6.61419 9.20793 9.83122 8.1863 10.5051 8.03415C11.0485 8.20804 11.5919 8.29499 12.1788 8.29499C12.2005 8.29499 12.2223 8.29499 12.2657 8.29499C12.7874 8.29499 13.3308 8.20804 13.8308 8.03415C14.4394 8.29499 17.9173 9.92524 18.352 14.1422C18.6129 16.5984 18.0912 18.7721 18.0912 18.7721C18.0912 18.7721 19.8953 20.1198 17.613 20.0328ZM13.2004 14.2726C12.9178 14.1204 12.5918 13.99 12.2875 13.8596C12.1136 13.7944 11.9397 13.7074 11.7875 13.577C11.505 13.3379 11.5484 12.9684 11.8962 12.8162C11.9832 12.7727 12.0918 12.751 12.2005 12.751C12.5918 12.7293 12.983 12.7945 13.3308 12.9684C13.5047 13.0553 13.5699 13.0336 13.6351 12.838C13.7004 12.6423 13.7438 12.4467 13.809 12.2293C13.8525 12.0989 13.7873 12.012 13.6786 11.9468C13.4395 11.8381 13.2004 11.7729 12.9613 11.7294C12.6353 11.6859 12.6353 11.6859 12.6353 11.3599C12.6353 10.9034 12.6353 10.9034 12.1788 10.9034C12.1136 10.9034 12.0484 10.9034 11.9832 10.9034C11.7658 10.9034 11.7223 10.9469 11.7223 11.1642C11.7223 11.2512 11.7223 11.3599 11.7223 11.4468C11.7223 11.7294 11.7223 11.7294 11.4397 11.8381C10.7659 12.0772 10.3529 12.5336 10.3094 13.2727C10.266 13.9248 10.6137 14.3595 11.1354 14.6856C11.4615 14.8812 11.831 14.9899 12.1788 15.142C12.3092 15.2073 12.4396 15.2725 12.5483 15.3594C12.8744 15.642 12.8309 16.0985 12.4179 16.2724C12.2005 16.3593 11.9832 16.381 11.7441 16.3593C11.3963 16.3158 11.0485 16.2289 10.7224 16.055C10.5268 15.9463 10.4833 15.9898 10.4181 16.1854C10.3529 16.3593 10.3094 16.5332 10.266 16.7071C10.2007 16.9462 10.2225 16.9897 10.4616 17.1201C10.7442 17.2505 11.0702 17.3375 11.3745 17.3809C11.6136 17.4244 11.6354 17.4244 11.6354 17.6852C11.6354 17.7939 11.6354 17.9243 11.6354 18.033C11.6354 18.1852 11.7006 18.2721 11.8527 18.2721C12.0266 18.2721 12.2005 18.2721 12.3744 18.2721C12.5048 18.2721 12.5918 18.1852 12.5918 18.0548C12.5918 17.9026 12.5918 17.7287 12.5918 17.5766C12.5918 17.4244 12.657 17.3375 12.8092 17.294C13.1569 17.207 13.483 17.0114 13.7004 16.7288C14.3742 15.9463 14.1351 14.7725 13.2004 14.2726Z" fill="#F48120"/>
</svg>
