<svg width="24" height="24" viewBox="0 0 24 24" fill="none" xmlns="http://www.w3.org/2000/svg">
<path d="M12.1827 7.96887C11.6393 7.96887 11.1176 7.88193 10.5959 7.70803C10.3133 7.62109 10.1829 7.31677 10.2699 7.05593C10.3568 6.77335 10.6611 6.64293 10.922 6.72988C11.335 6.88204 11.7914 6.94725 12.2262 6.92551C12.6174 6.92551 13.0087 6.8603 13.3782 6.72988C13.6608 6.64293 13.9434 6.79509 14.0303 7.05593C14.1173 7.33851 13.9651 7.62109 13.7043 7.70803C13.2261 7.86019 12.7261 7.94714 12.2262 7.94714C12.2262 7.96887 12.2044 7.96887 12.1827 7.96887ZM13.9216 4.33884C13.6825 4.42579 13.4434 4.46926 13.2043 4.491C13.1608 4.491 13.1174 4.491 13.0739 4.491C13.0522 4.491 13.0522 4.491 13.0522 4.491C12.7261 4.46926 12.4001 4.38232 12.1175 4.12148C11.7045 3.75195 11.248 3.62153 10.8568 3.59979H10.835H10.8133C10.422 3.59979 10.009 3.81716 9.68297 3.99105C9.42213 4.14321 9.35692 4.51274 9.53082 4.75184L10.7263 6.36036C10.835 6.36036 10.9437 6.36036 11.0524 6.40383C11.4436 6.53425 11.8349 6.59946 12.2479 6.59946C12.6174 6.59946 12.9652 6.53425 13.313 6.42557C13.4652 6.38209 13.6391 6.36036 13.8129 6.40383C13.8564 6.36036 13.8999 6.29515 13.9216 6.2082C14.0086 5.88215 14.2477 5.42568 14.4868 4.96921C14.6607 4.62142 14.3129 4.20842 13.9216 4.33884ZM17.6169 20.0327C17.6169 20.0327 13.9651 20.8805 12.1827 20.7935C10.422 20.8805 6.74852 20.0327 6.74852 20.0327C4.46616 20.1197 6.29204 18.772 6.29204 18.772C6.29204 18.772 5.29216 16.4027 5.74863 13.9682C6.61809 9.20787 9.83513 8.18624 10.509 8.03408C11.0524 8.20798 11.5958 8.29492 12.1827 8.29492C12.2044 8.29492 12.2262 8.29492 12.2696 8.29492C12.7913 8.29492 13.3347 8.20798 13.8347 8.03408C14.4433 8.29492 17.9212 9.92518 18.3559 14.1421C18.6168 16.5983 18.0951 18.772 18.0951 18.772C18.0951 18.772 19.8992 20.1197 17.6169 20.0327ZM13.2043 14.2725C12.9217 14.1204 12.5957 13.9899 12.2914 13.8595C12.1175 13.7943 11.9436 13.7074 11.7914 13.5769C11.5089 13.3378 11.5523 12.9683 11.9001 12.8162C11.9871 12.7727 12.0957 12.751 12.2044 12.751C12.5957 12.7292 12.987 12.7944 13.3347 12.9683C13.5086 13.0553 13.5738 13.0335 13.6391 12.8379C13.7043 12.6423 13.7477 12.4466 13.8129 12.2293C13.8564 12.0989 13.7912 12.0119 13.6825 11.9467C13.4434 11.838 13.2043 11.7728 12.9652 11.7293C12.6392 11.6859 12.6392 11.6859 12.6392 11.3598C12.6392 10.9033 12.6392 10.9033 12.1827 10.9033C12.1175 10.9033 12.0523 10.9033 11.9871 10.9033C11.7697 10.9033 11.7262 10.9468 11.7262 11.1642C11.7262 11.2511 11.7262 11.3598 11.7262 11.4467C11.7262 11.7293 11.7262 11.7293 11.4436 11.838C10.7698 12.0771 10.3568 12.5336 10.3133 13.2726C10.2699 13.9247 10.6177 14.3595 11.1393 14.6855C11.4654 14.8811 11.8349 14.9898 12.1827 15.142C12.3131 15.2072 12.4435 15.2724 12.5522 15.3594C12.8783 15.6419 12.8348 16.0984 12.4218 16.2723C12.2044 16.3592 11.9871 16.381 11.748 16.3592C11.4002 16.3158 11.0524 16.2288 10.7263 16.0549C10.5307 15.9462 10.4872 15.9897 10.422 16.1853C10.3568 16.3592 10.3133 16.5331 10.2699 16.707C10.2047 16.9461 10.2264 16.9896 10.4655 17.12C10.7481 17.2505 11.0741 17.3374 11.3784 17.3809C11.6175 17.4243 11.6393 17.4243 11.6393 17.6852C11.6393 17.7939 11.6393 17.9243 11.6393 18.033C11.6393 18.1851 11.7045 18.2721 11.8566 18.2721C12.0305 18.2721 12.2044 18.2721 12.3783 18.2721C12.5087 18.2721 12.5957 18.1851 12.5957 18.0547C12.5957 17.9026 12.5957 17.7287 12.5957 17.5765C12.5957 17.4243 12.6609 17.3374 12.8131 17.2939C13.1608 17.207 13.4869 17.0113 13.7043 16.7288C14.3781 15.9462 14.139 14.7725 13.2043 14.2725Z" fill="#B5B5B5"/>
</svg>
