<svg width="28" height="28" viewBox="0 0 28 28" fill="none" xmlns="http://www.w3.org/2000/svg">
<path d="M7.3188 5C8.67259 4.04667 10.2676 3.39022 12 3.136V0C9.37361 0.292444 6.9713 1.28533 5 2.77867L7.3188 5Z" fill="#F48120"/>
<path d="M3.136 12C3.39067 10.2676 4.04667 8.67259 5 7.3188L2.77867 5C1.28533 6.97177 0.292444 9.37361 0 12H3.136Z" fill="#F48120"/>
<path d="M25.0138 5.97757C26.2902 7.72722 27.1291 9.75085 27.4618 11.8854H25.0805C24.7929 10.3825 24.1923 8.93783 23.3262 7.66519L25.0138 5.97757ZM25.0617 5.26465L22.7129 7.61349C23.7214 8.98483 24.4151 10.601 24.6839 12.3558H27.9999C27.6907 9.69493 26.6408 7.26149 25.0617 5.26465Z" fill="#F48120"/>
<path d="M16.1145 0.5381C18.249 0.8713 20.2727 1.71017 22.0223 2.98658L20.3342 4.67419C19.0621 3.80759 17.6174 3.20698 16.1145 2.91984V0.5381ZM15.6445 0V3.31602C17.3993 3.5853 19.0155 4.27896 20.3869 5.28701L22.7357 2.93817C20.7384 1.35911 18.305 0.309232 15.6445 0Z" fill="#F48120"/>
<path d="M27.4618 16.115C27.1291 18.2495 26.2902 20.2732 25.0138 22.0228L23.3257 20.3347C24.1923 19.0625 24.7925 17.6179 25.0801 16.115H27.4618ZM27.9999 15.645H24.6839C24.4151 17.3998 23.7209 19.016 22.7129 20.3874L25.0617 22.7362C26.6408 20.7389 27.6907 18.3054 27.9999 15.645Z" fill="#F48120"/>
<path d="M20.6814 23C19.3277 23.9538 17.7327 24.6098 16 24.864V28C18.6262 27.7076 21.0284 26.7147 23 25.2213L20.6814 23Z" fill="#F48120"/>
<path d="M5 20.6814C4.04667 19.3277 3.39022 17.7327 3.136 16H0C0.292444 18.6262 1.28533 21.0284 2.77867 23L5 20.6814Z" fill="#F48120"/>
<path d="M12 24.864C10.2677 24.6098 8.67281 23.9533 7.31864 23L5 25.2213C6.97163 26.7147 9.37332 27.7076 11.9995 28V24.864H12Z" fill="#F48120"/>
</svg>
