<svg width="20" height="26" viewBox="0 0 20 26" fill="none" xmlns="http://www.w3.org/2000/svg">
<path d="M8.20115 25.0424C8.39421 25.336 8.66019 25.5776 8.97457 25.7449C9.28894 25.9123 9.64158 26 10 26C10.3584 26 10.7111 25.9123 11.0254 25.7449C11.3398 25.5776 11.6058 25.336 11.7989 25.0424L18.3368 15.0914C19.335 13.6263 19.9061 11.9257 19.9894 10.1702C20.0727 8.4148 19.665 6.67025 18.8098 5.12211C17.9545 3.57397 16.6837 2.28014 15.1324 1.37821C13.5812 0.476289 11.8075 0 10 0C8.19251 0 6.41882 0.476289 4.86755 1.37821C3.31629 2.28014 2.04546 3.57397 1.19023 5.12211C0.335004 6.67025 -0.0726527 8.4148 0.0106204 10.1702C0.0938935 11.9257 0.664982 13.6263 1.66315 15.0914L8.20115 25.0424ZM10.0106 4.4279C11.0887 4.42964 12.1421 4.74208 13.0376 5.32575C13.9331 5.90941 14.6305 6.73808 15.0417 7.70703C15.4529 8.67597 15.5594 9.74169 15.3478 10.7695C15.1361 11.7973 14.6158 12.741 13.8526 13.4813C13.0894 14.2217 12.1176 14.7254 11.06 14.9289C10.0024 15.1324 8.90652 15.0265 7.91081 14.6246C6.9151 14.2227 6.0643 13.5428 5.46595 12.6708C4.8676 11.7989 4.54856 10.7741 4.54916 9.72591C4.55155 8.321 5.12686 6.97434 6.14894 5.98119C7.17102 4.98804 8.55647 4.42945 10.0015 4.4279H10.0106Z" fill="#F48120"/>
<path d="M10.0016 14.1473C10.901 14.1473 11.7802 13.888 12.5281 13.4022C13.276 12.9163 13.8588 12.2258 14.203 11.4179C14.5472 10.61 14.6373 9.72101 14.4618 8.86335C14.2864 8.00569 13.8532 7.21788 13.2172 6.59954C12.5812 5.9812 11.7709 5.56011 10.8888 5.38951C10.0066 5.21891 9.09223 5.30647 8.26126 5.64111C7.43028 5.97575 6.72004 6.54245 6.22034 7.26954C5.72064 7.99663 5.45392 8.85145 5.45392 9.72592C5.45472 10.8983 5.9341 12.0224 6.78678 12.8514C7.63945 13.6804 8.7957 14.1465 10.0016 14.1473Z" fill="#F48120"/>
</svg>
