<svg width="22" height="30" viewBox="0 0 22 30" fill="none" xmlns="http://www.w3.org/2000/svg">
<path fill-rule="evenodd" clip-rule="evenodd" d="M10.4434 22.587C10.0833 22.587 9.85064 22.6188 9.71289 22.6504V27.3193C9.85091 27.3512 10.0732 27.3512 10.2741 27.3512C11.7348 27.3615 12.6878 26.5573 12.6878 24.8526C12.6981 23.3703 11.8302 22.587 10.4434 22.587Z" fill="#F48120"/>
<path fill-rule="evenodd" clip-rule="evenodd" d="M4.20714 22.566C3.87914 22.566 3.65681 22.5976 3.54004 22.6292V24.7362C3.67789 24.7678 3.84739 24.7787 4.07942 24.7787C4.93764 24.7787 5.46672 24.3445 5.46672 23.614C5.46677 22.9578 5.01128 22.566 4.20714 22.566Z" fill="#F48120"/>
<path d="M21.7589 7.18908C21.7572 7.0515 21.7135 6.91561 21.619 6.8082L15.8346 0.201198C15.8334 0.199346 15.8312 0.198747 15.83 0.197058C15.7955 0.158551 15.7559 0.126797 15.7134 0.0988014C15.7008 0.0906315 15.6875 0.0832786 15.6743 0.0758167C15.6375 0.0558822 15.599 0.0393245 15.5583 0.027233C15.5479 0.024074 15.5376 0.0196078 15.5267 0.0167755C15.4831 0.00620913 15.4377 0 15.3923 0H1.17647C0.527885 0 0 0.527939 0 1.17652V28.8235C0 29.4723 0.527885 30 1.17647 30H20.5882C21.2367 30 21.7647 29.4723 21.7647 28.8235V7.25498C21.7646 7.23287 21.7612 7.21119 21.7589 7.18908ZM6.40853 25.2653C5.8582 25.784 5.04296 26.0173 4.08996 26.0173C3.87853 26.0173 3.6874 26.0064 3.53975 25.9857V28.5368H1.94117V21.4964C2.4385 21.412 3.13762 21.3482 4.12237 21.3482C5.1173 21.3482 5.82672 21.5389 6.30297 21.9197C6.75847 22.2799 7.06468 22.8727 7.06468 23.5713C7.06468 24.2703 6.83233 24.8632 6.40853 25.2653ZM13.2163 27.6901C12.4655 28.3145 11.3221 28.6109 9.92502 28.6109C9.08847 28.6109 8.49594 28.5581 8.09294 28.5052V21.4964C8.68592 21.4016 9.45912 21.3482 10.2741 21.3482C11.6285 21.3482 12.5074 21.5918 13.1959 22.1104C13.9372 22.661 14.4031 23.5397 14.4031 24.7994C14.4025 26.1655 13.905 27.1076 13.2163 27.6901ZM19.8241 22.7246H17.0817V24.3549H19.6437V25.668H17.0817V28.5368H15.4624V21.4016H19.8241V22.7246ZM1.17647 19.9755V1.17652H14.804V7.19583C14.804 7.52051 15.0672 7.78407 15.3923 7.78407H20.5882L20.5888 19.9755H1.17647Z" fill="#F48120"/>
<path d="M16.9176 12.6435C16.8831 12.6403 16.0542 12.5646 14.7818 12.5646C14.3832 12.5646 13.9816 12.5724 13.5852 12.5873C11.0725 10.7017 9.01449 8.81461 7.9127 7.75704C7.9328 7.6406 7.94663 7.54855 7.95306 7.47785C8.09837 5.94382 7.93683 4.9082 7.47452 4.3997C7.1718 4.06741 6.72719 3.95684 6.26358 4.08347C5.97567 4.15891 5.44272 4.43821 5.27208 5.00678C5.08368 5.6351 5.38651 6.39768 6.18209 7.28199C6.19473 7.29539 6.46472 7.57829 6.95529 8.05764C6.63645 9.57795 5.80181 12.8587 5.39686 14.4341C4.44572 14.9424 3.65324 15.5546 3.03973 16.2568L2.99954 16.3028L2.97355 16.358C2.91037 16.4907 2.60836 17.1797 2.8351 17.7332C2.93864 17.9848 3.13265 18.1687 3.39621 18.2652L3.46685 18.2842C3.46685 18.2842 3.53058 18.298 3.64262 18.298C4.13335 18.298 5.34468 18.0401 5.9944 15.6457L6.15181 15.0391C8.41972 13.9368 11.2546 13.5812 13.3095 13.4821C14.3664 14.2659 15.4182 14.9859 16.4373 15.6236L16.4706 15.6429C16.52 15.6681 16.9669 15.8888 17.4903 15.8893C18.2382 15.8893 18.7845 15.4303 18.9879 14.6304L18.9982 14.5757C19.055 14.1186 18.9402 13.7065 18.6661 13.3844C18.0889 12.7059 17.0141 12.6467 16.9176 12.6435ZM3.66092 17.4152C3.65634 17.4097 3.65416 17.4046 3.65187 17.3988C3.60307 17.2814 3.66162 16.9964 3.74779 16.7876C4.11772 16.374 4.56178 15.9943 5.0742 15.6525C4.57518 17.2678 3.84948 17.4075 3.66092 17.4152ZM6.82931 6.6827C6.06298 5.82965 6.07447 5.40673 6.1157 5.26435C6.18335 5.02639 6.48868 4.93647 6.4913 4.93565C6.64511 4.89382 6.73846 4.90204 6.82158 4.99327C7.00954 5.19975 7.17098 5.8229 7.1072 6.96592C6.92626 6.78412 6.82931 6.6827 6.82931 6.6827ZM6.43335 13.947L6.44658 13.8965L6.44484 13.8971C6.82855 12.3942 7.38193 10.1936 7.70012 8.78002L7.71161 8.79097L7.71275 8.78422C8.74216 9.7536 10.3206 11.1715 12.2105 12.6462L12.1893 12.6471L12.2205 12.6707C10.4401 12.8211 8.31368 13.1721 6.43335 13.947ZM18.1257 14.44C17.9901 14.9382 17.7293 15.0063 17.4903 15.0063C17.2129 15.0063 16.9458 14.8908 16.8849 14.8629C16.1909 14.4279 15.481 13.954 14.7646 13.4469C14.7703 13.4469 14.7755 13.4469 14.7818 13.4469C16.0099 13.4469 16.828 13.5215 16.8601 13.5237C17.0652 13.5314 17.7144 13.6272 17.9941 13.9561C18.1038 14.085 18.1458 14.2391 18.1257 14.44Z" fill="#F48120"/>
</svg>
