<svg width="24" height="24" viewBox="0 0 24 24" fill="none" xmlns="http://www.w3.org/2000/svg">
<g clip-path="url(#clip0_1622_11031)">
<path d="M20.4012 3.59985H3.20117V7.33898H20.4012V3.59985Z" fill="white"/>
<path d="M20.4014 3.59985V6.59116H6.94052C6.14718 6.59116 5.38633 6.276 4.82535 5.71503C4.26437 5.15405 3.94922 4.3932 3.94922 3.59985H20.4014Z" fill="#F48120"/>
<path d="M20.4012 7.33887H3.20117V20.7997H20.4012V7.33887Z" fill="white"/>
<path d="M20.4014 7.33887V20.0519H5.07096C4.77345 20.0519 4.48814 19.9337 4.27777 19.7234C4.0674 19.513 3.94922 19.2277 3.94922 18.9302V7.33887H20.4014Z" fill="#F48120"/>
<path d="M10.6789 14.8174H4.69629V19.3043H10.6789V14.8174Z" fill="white"/>
<path d="M10.6801 14.8174V18.5565H6.56705C6.26955 18.5565 5.98423 18.4383 5.77386 18.228C5.5635 18.0176 5.44531 17.7323 5.44531 17.4348V14.8174H10.6801Z" fill="#F7F8FA"/>
<path d="M9.18358 16.6868H6.19227C6.0931 16.6868 5.998 16.6474 5.92788 16.5773C5.85775 16.5072 5.81836 16.412 5.81836 16.3129C5.81836 16.2137 5.85775 16.1186 5.92788 16.0485C5.998 15.9784 6.0931 15.939 6.19227 15.939H9.18358C9.28274 15.939 9.37785 15.9784 9.44797 16.0485C9.5181 16.1186 9.55749 16.2137 9.55749 16.3129C9.55749 16.412 9.5181 16.5072 9.44797 16.5773C9.37785 16.6474 9.28274 16.6868 9.18358 16.6868Z" fill="#F48120"/>
<path d="M9.18358 18.1825H6.19227C6.0931 18.1825 5.998 18.1431 5.92788 18.0729C5.85775 18.0028 5.81836 17.9077 5.81836 17.8085C5.81836 17.7094 5.85775 17.6143 5.92788 17.5441C5.998 17.474 6.0931 17.4346 6.19227 17.4346H9.18358C9.28274 17.4346 9.37785 17.474 9.44797 17.5441C9.5181 17.6143 9.55749 17.7094 9.55749 17.8085C9.55749 17.9077 9.5181 18.0028 9.44797 18.0729C9.37785 18.1431 9.28274 18.1825 9.18358 18.1825Z" fill="#F48120"/>
<path d="M15.54 19.3041V14.8172C15.54 14.718 15.5794 14.6229 15.6496 14.5528C15.7197 14.4826 15.8148 14.4432 15.914 14.4432C16.0131 14.4432 16.1082 14.4826 16.1783 14.5528C16.2485 14.6229 16.2879 14.718 16.2879 14.8172V19.3041C16.2879 19.4033 16.2485 19.4984 16.1783 19.5685C16.1082 19.6386 16.0131 19.678 15.914 19.678C15.8148 19.678 15.7197 19.6386 15.6496 19.5685C15.5794 19.4984 15.54 19.4033 15.54 19.3041Z" fill="white"/>
<g filter="url(#filter0_d_1622_11031)">
<path d="M14.0446 3.59985V9.95638L12.9228 9.20855L11.8048 9.95638L10.6794 9.20855L9.55762 9.95638V3.59985H14.0446Z" fill="white"/>
</g>
<path d="M17.409 17.0608C17.1659 17.0608 17.2183 17.0608 15.9133 15.4156L14.7093 16.9113C14.645 16.9794 14.5575 17.0209 14.464 17.0276C14.3706 17.0342 14.2781 17.0056 14.2047 16.9473C14.1314 16.889 14.0826 16.8053 14.068 16.7128C14.0535 16.6203 14.0741 16.5256 14.126 16.4476L15.6216 14.578C15.6567 14.5344 15.7011 14.4991 15.7516 14.4749C15.802 14.4507 15.8573 14.4381 15.9133 14.4381C15.9693 14.4381 16.0246 14.4507 16.075 14.4749C16.1255 14.4991 16.1699 14.5344 16.205 14.578L17.7006 16.4476C17.7463 16.5025 17.7754 16.5693 17.7843 16.6402C17.7932 16.7111 17.7817 16.783 17.751 16.8475C17.7203 16.912 17.6718 16.9664 17.6112 17.0042C17.5506 17.042 17.4804 17.0617 17.409 17.0608Z" fill="white"/>
<path d="M14.0448 3.59985C14.0448 9.48898 14.0074 9.20855 14.0448 9.20855C13.0531 9.20855 12.1021 8.81461 11.4008 8.11338C10.6996 7.41216 10.3057 6.4611 10.3057 5.46942V3.59985H14.0448Z" fill="#F7F8FA"/>
</g>
<defs>
<filter id="filter0_d_1622_11031" x="5.55762" y="-0.400146" width="12.4873" height="14.3566" filterUnits="userSpaceOnUse" color-interpolation-filters="sRGB">
<feFlood flood-opacity="0" result="BackgroundImageFix"/>
<feColorMatrix in="SourceAlpha" type="matrix" values="0 0 0 0 0 0 0 0 0 0 0 0 0 0 0 0 0 0 127 0" result="hardAlpha"/>
<feOffset/>
<feGaussianBlur stdDeviation="2"/>
<feComposite in2="hardAlpha" operator="out"/>
<feColorMatrix type="matrix" values="0 0 0 0 0 0 0 0 0 0 0 0 0 0 0 0 0 0 0.1 0"/>
<feBlend mode="normal" in2="BackgroundImageFix" result="effect1_dropShadow_1622_11031"/>
<feBlend mode="normal" in="SourceGraphic" in2="effect1_dropShadow_1622_11031" result="shape"/>
</filter>
<clipPath id="clip0_1622_11031">
<rect width="24" height="24" fill="white"/>
</clipPath>
</defs>
</svg>
