<svg width="24" height="24" viewBox="0 0 24 24" fill="none" xmlns="http://www.w3.org/2000/svg">
<g clip-path="url(#clip0_970_57818)">
<path d="M20.3992 3.59991H3.19922V7.33905H20.3992V3.59991Z" fill="#9D9D9D"/>
<path d="M20.3994 3.59991V6.59122H6.93857C6.14523 6.59122 5.38438 6.27606 4.8234 5.71509C4.26242 5.15411 3.94727 4.39326 3.94727 3.59991H20.3994Z" fill="#666666"/>
<path d="M20.3992 7.33899H3.19922V20.7999H20.3992V7.33899Z" fill="#9D9D9D"/>
<path d="M20.3994 7.33899V20.052H5.069C4.7715 20.052 4.48618 19.9338 4.27582 19.7235C4.06545 19.5131 3.94727 19.2278 3.94727 18.9303V7.33899H20.3994Z" fill="#747474"/>
<path d="M10.6779 14.8175H4.69531V19.3045H10.6779V14.8175Z" fill="#E3E3E3"/>
<path d="M10.6781 14.8175V18.5566H6.5651C6.26759 18.5566 5.98228 18.4385 5.77191 18.2281C5.56154 18.0177 5.44336 17.7324 5.44336 17.4349V14.8175H10.6781Z" fill="#E3E3E3"/>
<path d="M9.18162 16.6868H6.19032C6.09115 16.6868 5.99605 16.6474 5.92592 16.5773C5.8558 16.5072 5.81641 16.412 5.81641 16.3129C5.81641 16.2137 5.8558 16.1186 5.92592 16.0485C5.99605 15.9784 6.09115 15.939 6.19032 15.939H9.18162C9.28079 15.939 9.3759 15.9784 9.44602 16.0485C9.51614 16.1186 9.55554 16.2137 9.55554 16.3129C9.55554 16.412 9.51614 16.5072 9.44602 16.5773C9.3759 16.6474 9.28079 16.6868 9.18162 16.6868Z" fill="#747474"/>
<path d="M9.18162 18.1825H6.19032C6.09115 18.1825 5.99605 18.1431 5.92592 18.073C5.8558 18.0029 5.81641 17.9078 5.81641 17.8086C5.81641 17.7094 5.8558 17.6143 5.92592 17.5442C5.99605 17.4741 6.09115 17.4347 6.19032 17.4347H9.18162C9.28079 17.4347 9.3759 17.4741 9.44602 17.5442C9.51614 17.6143 9.55554 17.7094 9.55554 17.8086C9.55554 17.9078 9.51614 18.0029 9.44602 18.073C9.3759 18.1431 9.28079 18.1825 9.18162 18.1825Z" fill="#747474"/>
<path d="M15.5391 19.3042V14.8172C15.5391 14.718 15.5785 14.6229 15.6486 14.5528C15.7187 14.4827 15.8138 14.4433 15.913 14.4433C16.0121 14.4433 16.1072 14.4827 16.1774 14.5528C16.2475 14.6229 16.2869 14.718 16.2869 14.8172V19.3042C16.2869 19.4033 16.2475 19.4984 16.1774 19.5686C16.1072 19.6387 16.0121 19.6781 15.913 19.6781C15.8138 19.6781 15.7187 19.6387 15.6486 19.5686C15.5785 19.4984 15.5391 19.4033 15.5391 19.3042Z" fill="#E3E3E3"/>
<g filter="url(#filter0_d_970_57818)">
<path d="M14.0416 3.59991V9.95644L12.9199 9.20861L11.8019 9.95644L10.6764 9.20861L9.55469 9.95644V3.59991H14.0416Z" fill="#9D9D9D"/>
</g>
<path d="M17.408 17.0609C17.1649 17.0609 17.2173 17.0609 15.9123 15.4157L14.7083 16.9113C14.644 16.9794 14.5565 17.0209 14.4631 17.0276C14.3696 17.0343 14.2771 17.0056 14.2037 16.9474C14.1304 16.8891 14.0816 16.8054 14.0671 16.7128C14.0525 16.6203 14.0732 16.5257 14.125 16.4477L15.6207 14.5781C15.6557 14.5344 15.7001 14.4992 15.7506 14.475C15.8011 14.4507 15.8563 14.4382 15.9123 14.4382C15.9683 14.4382 16.0236 14.4507 16.0741 14.475C16.1245 14.4992 16.1689 14.5344 16.204 14.5781L17.6996 16.4477C17.7454 16.5025 17.7744 16.5694 17.7833 16.6403C17.7923 16.7111 17.7807 16.7831 17.75 16.8476C17.7193 16.9121 17.6708 16.9665 17.6102 17.0043C17.5496 17.0421 17.4794 17.0617 17.408 17.0609Z" fill="#E3E3E3"/>
<path d="M14.0438 3.59991C14.0438 9.48905 14.0064 9.20861 14.0438 9.20861C13.0521 9.20861 12.1011 8.81467 11.3999 8.11344C10.6986 7.41222 10.3047 6.46116 10.3047 5.46948V3.59991H14.0438Z" fill="#E3E3E3"/>
</g>
<defs>
<filter id="filter0_d_970_57818" x="5.55469" y="-0.400085" width="12.4863" height="14.3565" filterUnits="userSpaceOnUse" color-interpolation-filters="sRGB">
<feFlood flood-opacity="0" result="BackgroundImageFix"/>
<feColorMatrix in="SourceAlpha" type="matrix" values="0 0 0 0 0 0 0 0 0 0 0 0 0 0 0 0 0 0 127 0" result="hardAlpha"/>
<feOffset/>
<feGaussianBlur stdDeviation="2"/>
<feComposite in2="hardAlpha" operator="out"/>
<feColorMatrix type="matrix" values="0 0 0 0 0 0 0 0 0 0 0 0 0 0 0 0 0 0 0.1 0"/>
<feBlend mode="normal" in2="BackgroundImageFix" result="effect1_dropShadow_970_57818"/>
<feBlend mode="normal" in="SourceGraphic" in2="effect1_dropShadow_970_57818" result="shape"/>
</filter>
<clipPath id="clip0_970_57818">
<rect width="24" height="24" fill="white"/>
</clipPath>
</defs>
</svg>
