<svg width="25" height="23" viewBox="0 0 25 23" fill="none" xmlns="http://www.w3.org/2000/svg">
<path d="M21.4043 10.2647C22.2383 10.4306 23.0042 10.834 23.6065 11.4244C24.2089 12.0149 24.6211 12.7665 24.7919 13.5855C24.8633 13.9313 24.9186 14.2789 24.9577 14.6281C25.0141 15.1789 25.0141 15.7339 24.9577 16.2847C24.9203 16.6339 24.865 16.9814 24.7919 17.3273C24.6236 18.1343 24.2207 18.8761 23.6322 19.4628C23.0436 20.0495 22.2946 20.456 21.4758 20.633C21.6406 21.1868 21.9241 21.6996 22.3073 22.1368C22.3743 22.2134 22.4172 22.3075 22.4308 22.4076C22.4444 22.5077 22.4281 22.6095 22.3839 22.7007C22.3339 22.8027 22.2519 22.8862 22.1499 22.939C22.048 22.9918 21.9315 23.011 21.8176 22.9939C20.3277 22.7674 18.9562 22.0624 17.9173 20.9889C16.5504 21.0131 15.1842 20.9132 13.836 20.6907C12.9687 20.5469 12.1662 20.1483 11.5342 19.5474C10.9021 18.9465 10.4702 18.1716 10.2954 17.3248C10.2443 17.0742 10.2061 16.8436 10.1729 16.603C11.822 16.5884 13.4673 16.4459 15.0935 16.1769C16.6231 15.9162 18.0394 15.2151 19.1629 14.1625C20.2864 13.11 21.0665 11.7534 21.4043 10.2647ZM0.0562346 8.39755C0.0170711 8.03376 -0.00166361 7.66813 0.000115763 7.30232C-0.00166361 6.93651 0.0170711 6.57088 0.0562346 6.20709C0.105551 5.74594 0.177825 5.2873 0.273057 4.83116C0.507647 3.7168 1.0793 2.69803 1.91316 1.90827C2.74701 1.11851 3.80419 0.594596 4.94622 0.405133C8.19245 -0.135044 11.508 -0.135044 14.7543 0.405133C15.8963 0.594596 16.9535 1.11851 17.7873 1.90827C18.6212 2.69803 19.1928 3.7168 19.4274 4.83116C19.5227 5.2873 19.5949 5.74594 19.6442 6.20709C19.6834 6.57088 19.7022 6.93651 19.7004 7.30232C19.7013 7.66818 19.6817 8.03381 19.6417 8.39755C19.5924 8.8587 19.5201 9.31734 19.4249 9.77348C19.1909 10.8879 18.6198 11.907 17.7864 12.6972C16.953 13.4874 15.8962 14.0119 14.7543 14.202C13.1393 14.469 11.5044 14.6023 9.86682 14.6005H9.35665C7.28025 16.6631 5.07377 17.2045 3.67335 17.3098H3.62998C3.52428 17.3165 3.41906 17.2907 3.32893 17.236C3.2388 17.1814 3.16823 17.1005 3.12701 17.0046C3.08579 16.9087 3.07597 16.8026 3.0989 16.701C3.12184 16.5994 3.1764 16.5073 3.25501 16.4376C3.91198 15.7991 4.39375 15.0076 4.65543 14.1368C3.57488 13.9014 2.58652 13.3644 1.80911 12.5903C1.03171 11.8163 0.498323 10.8382 0.273057 9.77348C0.177825 9.31734 0.105551 8.8587 0.0562346 8.39755ZM7.52004 10.781C7.92498 10.9608 8.35478 11.0807 8.79546 11.1369C8.86476 11.1444 8.93312 11.1586 8.99953 11.1795C9.01341 11.2513 9.01855 11.3245 9.01484 11.3975V11.8562C9.00988 11.9137 9.01716 11.9716 9.03621 12.0262C9.05526 12.0808 9.08566 12.1309 9.12549 12.1733C9.16532 12.2157 9.21369 12.2496 9.26754 12.2726C9.32139 12.2957 9.37953 12.3075 9.43828 12.3073H9.76989H10.1423C10.2007 12.3104 10.2592 12.3011 10.3136 12.2801C10.3681 12.2591 10.4173 12.2268 10.458 12.1854C10.4986 12.144 10.5297 12.0946 10.5492 12.0404C10.5687 11.9862 10.5761 11.9285 10.5709 11.8712C10.5709 11.801 10.5709 11.7309 10.5709 11.6632C10.5709 11.5203 10.5709 11.38 10.5709 11.2371C10.5709 11.0943 10.6066 11.0466 10.7545 11.0065C11.2553 10.877 11.7016 10.5955 12.0299 10.202C12.2399 9.95004 12.3908 9.65569 12.4719 9.33992C12.553 9.02416 12.5624 8.69471 12.4993 8.37499C12.4302 8.03283 12.2851 7.70987 12.0743 7.42914C11.8635 7.14842 11.5923 6.91684 11.28 6.75094C10.9309 6.56965 10.5715 6.40815 10.2035 6.26724L10.0607 6.2096C9.83772 6.12359 9.62819 6.00716 9.43828 5.86373C9.37253 5.81814 9.32006 5.75646 9.28605 5.68481C9.25204 5.61315 9.23769 5.534 9.24441 5.45522C9.25959 5.37518 9.29583 5.30044 9.34953 5.23844C9.40323 5.17645 9.47253 5.12935 9.55052 5.10184C9.66333 5.0573 9.78352 5.03351 9.90508 5.03166H10.076C10.5179 5.03109 10.9541 5.12967 11.3514 5.31988C11.4357 5.36379 11.529 5.38862 11.6244 5.39256C11.859 5.39256 11.9228 5.17201 11.9585 5.06675C12.0197 4.87878 12.0759 4.69081 12.1294 4.50034L12.1958 4.27728C12.2156 4.22549 12.2247 4.17033 12.2226 4.11503C12.2205 4.05972 12.2072 4.00539 12.1834 3.95521C12.1597 3.90503 12.126 3.86001 12.0843 3.82279C12.0426 3.78557 11.9938 3.75689 11.9407 3.73844C11.6227 3.59831 11.2874 3.49973 10.9433 3.44521C10.6321 3.39759 10.6321 3.39759 10.6295 3.08932C10.6295 2.4402 10.5785 2.33745 9.93314 2.33745H9.58368C9.2138 2.33745 9.10412 2.45775 9.09391 2.82366C9.09391 2.90887 9.09391 2.99158 9.09391 3.07428V3.20962C9.09391 3.4828 9.09391 3.4828 8.81842 3.58054C7.81338 3.93894 7.2726 4.61562 7.21138 5.58554C7.16037 6.41761 7.54554 7.06422 8.39243 7.56046C8.70467 7.73435 9.03051 7.88352 9.36685 8.00657C9.5097 8.06422 9.6551 8.11935 9.7954 8.18201C9.96461 8.25051 10.1234 8.34159 10.2673 8.45269C10.3501 8.50896 10.4155 8.58665 10.4562 8.67717C10.4969 8.76768 10.5113 8.86749 10.4978 8.96554C10.4844 9.0636 10.4435 9.15609 10.3799 9.23278C10.3163 9.30946 10.2323 9.36735 10.1372 9.40005C9.94948 9.47913 9.74712 9.51924 9.54286 9.51784C9.4704 9.51804 9.39798 9.51385 9.32604 9.50531C8.87067 9.45619 8.42815 9.32626 8.02 9.12185C7.93504 9.0708 7.83877 9.04071 7.73941 9.03413C7.51238 9.03413 7.44096 9.2597 7.4027 9.38C7.32872 9.61308 7.2624 9.84616 7.19863 10.0792C7.08894 10.4627 7.14251 10.6055 7.52004 10.781Z" fill="#F48120"/>
</svg>
