<svg width="28" height="27" viewBox="0 0 28 27" fill="none" xmlns="http://www.w3.org/2000/svg">
<path d="M15.8974 25.5036C15.8394 25.4326 15.7498 25.4009 15.6597 25.4174C15.2106 25.5003 14.7539 25.5629 14.2866 25.5933C10.947 25.8107 7.83544 24.6536 5.50491 22.6077C3.17396 20.5618 1.62365 17.6265 1.40671 14.2866C1.18935 10.947 2.34594 7.83543 4.39229 5.5049C6.43822 3.17437 9.37348 1.62407 12.713 1.4067C16.053 1.18934 19.1642 2.34636 21.4951 4.39229C23.8256 6.43821 25.3759 9.37347 25.5933 12.7134C25.661 13.7508 25.5865 14.7632 25.4022 15.74C25.3945 15.7806 25.4102 15.8216 25.4423 15.8479C25.6161 15.9866 26.1591 16.4315 26.3917 16.6784C26.4695 16.7609 26.6087 16.7279 26.6353 16.6175C26.9377 15.3413 27.0603 14.0003 26.9711 12.6238C26.7288 8.90407 25.0017 5.6343 22.4056 3.35537C19.8091 1.07601 16.3431 -0.212953 12.6234 0.0289384C8.90365 0.271253 5.63389 1.9979 3.35495 4.59443C1.07559 7.19053 -0.212945 10.6569 0.0289461 14.3762C0.270837 18.0959 1.99791 21.3661 4.59443 23.6451C7.19054 25.924 10.6565 27.213 14.3762 26.9711C15.1247 26.9224 15.8546 26.8116 16.5621 26.6471C16.6945 26.6163 16.7436 26.4518 16.6514 26.352C16.4302 26.1122 16.0855 25.735 15.8974 25.5036ZM19.9846 12.4398H14.2857C14.1766 12.2669 14.0303 12.1201 13.8573 12.011V7.62906C13.8573 7.22732 13.5313 6.90127 13.1296 6.90127C12.7278 6.90127 12.4018 7.22732 12.4018 7.62906V12.011C12.0182 12.2529 11.7632 12.6804 11.7632 13.1672C11.7632 13.922 12.3751 14.5335 13.1296 14.5335C13.6167 14.5335 14.0438 14.279 14.2857 13.895H19.9846C20.3863 13.895 20.7119 13.5694 20.7119 13.1672C20.7119 12.7659 20.3863 12.4398 19.9846 12.4398ZM13.1296 13.6725C12.8505 13.6725 12.6246 13.4463 12.6246 13.1672C12.6246 12.8885 12.8505 12.6627 13.1296 12.6627C13.4082 12.6627 13.6345 12.8885 13.6345 13.1672C13.6345 13.4463 13.4082 13.6725 13.1296 13.6725ZM25.8069 17.9335C25.5007 17.5432 25.1438 17.1965 24.7463 16.8987C23.8104 16.1989 22.6525 15.7794 21.394 15.7794C18.296 15.7794 15.784 18.2909 15.784 21.389C15.784 22.3827 16.0449 23.3144 16.4983 24.1242C16.7406 24.5568 17.0383 24.9539 17.3821 25.3062C18.4008 26.349 19.8205 26.9986 21.394 26.9986C24.4917 26.9986 27.0036 24.487 27.0036 21.389C27.0036 20.0839 26.5541 18.8863 25.8069 17.9335ZM22.066 24.0819L22.0694 24.6684C22.0694 24.7911 21.9692 24.8909 21.8474 24.8909H21.2799C21.1568 24.8909 21.0566 24.7911 21.0566 24.6684L21.0604 24.1077C20.9234 24.0726 20.794 24.0261 20.6705 23.9567C20.218 23.7051 19.9524 23.2683 19.8657 22.765C19.8543 22.6986 19.8721 22.6352 19.9152 22.584C19.9583 22.5329 20.018 22.5045 20.0852 22.5045H20.6058C20.7047 22.5045 20.7902 22.568 20.8189 22.6627C21.0181 23.3207 22.247 23.3905 22.247 22.5811C22.247 22.1146 21.5903 21.9455 21.2388 21.8161C20.473 21.5349 19.8332 21.2012 19.8332 20.2649C19.8332 19.4936 20.3394 18.9091 21.06 18.696L21.0566 18.1099C21.0566 17.9868 21.1568 17.887 21.2794 17.887H21.847C21.9696 17.887 22.0694 17.9873 22.0694 18.1099L22.066 18.6706C22.203 18.7053 22.332 18.7527 22.4559 18.8212C22.9084 19.0728 23.174 19.5096 23.2602 20.0133C23.2721 20.0793 23.2543 20.1431 23.2108 20.1947C23.1676 20.2459 23.108 20.2738 23.0408 20.2738H22.5206C22.4212 20.2738 22.3358 20.2104 22.3075 20.1152C22.1083 19.4576 20.879 19.3879 20.879 20.1968C20.879 20.6375 21.4507 20.8024 21.7865 20.9246C22.5862 21.2168 23.2932 21.5255 23.2932 22.5134C23.2932 23.2848 22.7866 23.8692 22.066 24.0819Z" fill="#F48120"/>
</svg>
