<svg width="70" height="53" viewBox="0 0 70 53" fill="none" xmlns="http://www.w3.org/2000/svg">
<path d="M35.3748 41.3267H33.1309V45.0423H35.3748V41.3267Z" fill="#B5B5B5"/>
<path d="M33.1311 49.8796H32.0093V52.1241H35.3756V48.7578H33.1311V49.8796Z" fill="#B5B5B5"/>
<path d="M27.9172 49.8799H23.8252V52.1238H27.9172V49.8799Z" fill="#B5B5B5"/>
<path d="M19.7336 49.8799H15.6416V52.1238H19.7336V49.8799Z" fill="#B5B5B5"/>
<path d="M11.5497 49.8799H7.45801V52.1238H11.5497V49.8799Z" fill="#B5B5B5"/>
<path d="M2.24362 48.7578H0V52.1241H3.36544V49.8796H2.24362V48.7578Z" fill="#B5B5B5"/>
<path d="M2.2439 32.3867H0V36.4795H2.2439V32.3867Z" fill="#B5B5B5"/>
<path d="M2.2439 24.2017H0V28.2942H2.2439V24.2017Z" fill="#B5B5B5"/>
<path d="M2.2439 40.5723H0V44.6651H2.2439V40.5723Z" fill="#B5B5B5"/>
<path d="M0 20.109H2.24362V18.9871H3.36544V16.7427H0V20.109Z" fill="#B5B5B5"/>
<path d="M10.8534 16.7427H7.10986V18.9866H10.8534V16.7427Z" fill="#B5B5B5"/>
<path d="M69.9674 28.3629C69.9212 28.1721 69.8261 27.9967 69.6913 27.854C69.5565 27.7114 69.3867 27.6064 69.1989 27.5495L60.8403 25.0475V1.12195C60.8404 0.974605 60.8114 0.828693 60.755 0.692553C60.6986 0.556413 60.616 0.432714 60.5118 0.328523C60.4076 0.224332 60.2839 0.141692 60.1478 0.0853237C60.0116 0.0289555 59.8657 -3.53211e-05 59.7184 6.69646e-06H16.843C16.6955 -0.000503707 16.5494 0.0281679 16.4131 0.0843702C16.2767 0.140573 16.1528 0.223195 16.0485 0.327479C15.9443 0.431763 15.8616 0.555648 15.8054 0.691999C15.7492 0.828351 15.7206 0.974474 15.7211 1.12195V16.7451H14.5991V18.989H15.7211V36.4914H33.1338V37.6134H35.3777V36.4914H50.9896L53.1269 43.0661C53.1873 43.2462 53.2918 43.4083 53.431 43.5377C53.5701 43.667 53.7394 43.7595 53.9235 43.8065C54.1078 43.8528 54.3008 43.8514 54.4844 43.8023C54.6679 43.7532 54.8359 43.6581 54.9725 43.5261L59.6903 38.999L63.9145 43.2288C64.1252 43.4389 64.4106 43.5569 64.7082 43.5569C65.0058 43.5569 65.2913 43.4389 65.502 43.2288L69.0923 39.6385C69.1975 39.5348 69.2811 39.4113 69.3382 39.275C69.3953 39.1387 69.4246 38.9925 69.4246 38.8447C69.4246 38.697 69.3953 38.5507 69.3382 38.4144C69.2811 38.2782 69.1975 38.1546 69.0923 38.0509L64.9747 33.9278L69.6532 29.4344C69.7959 29.2997 69.9001 29.1294 69.9553 28.9412C70.0105 28.7529 70.0147 28.5533 69.9674 28.3629V28.3629ZM17.965 34.2475V24.3912L27.3164 12.6444C27.4977 12.4124 27.7257 12.2211 27.9857 12.0829C28.2456 11.9447 28.5317 11.8627 28.8254 11.8422C29.1198 11.8182 29.4159 11.8557 29.695 11.9523C29.9741 12.0489 30.2301 12.2024 30.4467 12.4031L48.5774 29.0809L50.2547 34.2475H17.965ZM58.5964 24.3744L47.8481 21.16C47.6514 21.1023 47.4426 21.0989 47.2441 21.1503C47.0456 21.2016 46.8646 21.3058 46.7206 21.4517C46.5774 21.5986 46.4772 21.7818 46.4307 21.9815C46.3842 22.1813 46.3933 22.3899 46.4569 22.5849L47.5115 25.8161L41.7615 20.5261L50.8998 14.3049C51.4164 13.955 52.0326 13.7822 52.6557 13.8126C53.2789 13.8429 53.8753 14.0748 54.3554 14.4732L58.5964 18.0186V24.3744V24.3744ZM58.5964 15.8251L55.4381 13.1829C54.6767 12.5488 53.7297 12.1796 52.74 12.131C51.7503 12.0824 50.7717 12.3571 49.9518 12.9136L40.4881 19.3536L31.5855 11.1634C31.1984 10.8078 30.7423 10.5356 30.2455 10.3638C29.7488 10.192 29.222 10.1242 28.6979 10.1648C28.1738 10.2053 27.6637 10.3532 27.1993 10.5993C26.7348 10.8454 26.326 11.1845 25.9981 11.5953L17.965 21.6873V2.2439H58.5964V15.8251Z" fill="#B5B5B5"/>
<path d="M40.4096 5.02637C39.5026 5.02582 38.6157 5.29424 37.8613 5.79769C37.1068 6.30114 36.5186 7.01702 36.171 7.85478C35.8234 8.69255 35.732 9.61458 35.9084 10.5043C36.0848 11.394 36.5211 12.2114 37.162 12.8531C37.803 13.4949 38.6199 13.9322 39.5093 14.1097C40.3988 14.2872 41.321 14.1969 42.1592 13.8503C42.9973 13.5037 43.7139 12.9164 44.2183 12.1625C44.7227 11.4087 44.9922 10.5222 44.9928 9.61518C44.9926 8.39918 44.5098 7.23296 43.6505 6.3726C42.7912 5.51223 41.6256 5.02805 40.4096 5.02637V5.02637ZM40.4096 12.5154C39.8352 12.516 39.2735 12.3461 38.7957 12.0273C38.3178 11.7086 37.9453 11.2552 37.7252 10.7246C37.5051 10.194 37.4474 9.61009 37.5593 9.04668C37.6713 8.48328 37.9478 7.96575 38.354 7.55958C38.7601 7.15341 39.2777 6.87686 39.8411 6.76493C40.4045 6.65301 40.9884 6.71074 41.519 6.93081C42.0496 7.15089 42.503 7.52342 42.8217 8.00126C43.1405 8.4791 43.3104 9.04077 43.3098 9.61518C43.3088 10.3841 43.0029 11.1212 42.4592 11.6648C41.9156 12.2085 41.1785 12.5144 40.4096 12.5154V12.5154Z" fill="#B5B5B5"/>
</svg>
